<?xml version="1.0" encoding="UTF-8" standalone="no"?>
<svg id="svg2" xmlns:rdf="http://www.w3.org/1999/02/22-rdf-syntax-ns#" xmlns="http://www.w3.org/2000/svg" height="41" width="25" version="1.1" xmlns:cc="http://creativecommons.org/ns#" xmlns:dc="http://purl.org/dc/elements/1.1/">
 <metadata id="metadata67">
  <rdf:RDF>
   <cc:Work rdf:about="">
    <dc:format>image/svg+xml</dc:format>
    <dc:type rdf:resource="http://purl.org/dc/dcmitype/StillImage"/>
    <dc:title/>
   </cc:Work>
  </rdf:RDF>
 </metadata>
 <path id="path3" d="M24.847,21,21.312,17.464z" stroke="#1919ac" stroke-width="1" fill="none"/>
 <path id="path5" d="M17.776,13.929,14.24,10.393z" stroke="#1919ac" stroke-width="1" fill="none"/>
 <path id="path7" d="M10.705,6.8579,7.1694,3.3223z" stroke="#1919ac" stroke-width="1" fill="none"/>
 <path id="path9" d="M24.847,21,20.9,17.93z" stroke="#1919ac" stroke-width="1" fill="none"/>
 <path id="path11" d="M16.954,14.861,13.007,11.791z" stroke="#1919ac" stroke-width="1" fill="none"/>
 <path id="path13" d="M9.06,8.7212,5.1133,5.6515z" stroke="#1919ac" stroke-width="1" fill="none"/>
 <path id="path15" d="M24.847,21,20.476,18.572z" stroke="#1919ac" stroke-width="1" fill="none"/>
 <path id="path17" d="M16.106,16.144,11.735,13.715z" stroke="#1919ac" stroke-width="1" fill="none"/>
 <path id="path19" d="M7.3639,11.287,2.9932,8.8589z" stroke="#1919ac" stroke-width="1" fill="none"/>
 <path id="path21" d="M24.847,21,20.104,19.419z" stroke="#1919ac" stroke-width="1" fill="none"/>
 <path id="path23" d="M15.36,17.838,10.617,16.257z" stroke="#1919ac" stroke-width="1" fill="none"/>
 <path id="path25" d="M5.8734,14.675,1.13,13.094z" stroke="#1919ac" stroke-width="1" fill="none"/>
 <path id="path27" d="M24.847,21,19.878,20.448z" stroke="#1919ac" stroke-width="1" fill="none"/>
 <path id="path29" d="M14.908,19.896,9.9388,19.344z" stroke="#1919ac" stroke-width="1" fill="none"/>
 <path id="path31" d="M4.9694,18.791,0,18.239z" stroke="#1919ac" stroke-width="1" fill="none"/>
 <path id="path33" d="m24.847,21-4.9694,0.55216z" stroke="#1919ac" stroke-width="1" fill="none"/>
 <path id="path35" d="M14.908,22.104,9.9388,22.656z" stroke="#1919ac" stroke-width="1" fill="none"/>
 <path id="path37" d="M4.9694,23.209,0,23.761z" stroke="#1919ac" stroke-width="1" fill="none"/>
 <path id="path39" d="m24.847,21-4.7434,1.5811z" stroke="#1919ac" stroke-width="1" fill="none"/>
 <path id="path41" d="m15.36,24.162-4.7434,1.5811z" stroke="#1919ac" stroke-width="1" fill="none"/>
 <path id="path43" d="M5.8734,27.325,1.13,28.906z" stroke="#1919ac" stroke-width="1" fill="none"/>
 <path id="path45" d="m24.847,21-4.3708,2.4282z" stroke="#1919ac" stroke-width="1" fill="none"/>
 <path id="path47" d="m16.106,25.856-4.3708,2.4282z" stroke="#1919ac" stroke-width="1" fill="none"/>
 <path id="path49" d="M7.3639,30.713,2.9932,33.141z" stroke="#1919ac" stroke-width="1" fill="none"/>
 <path id="path51" d="m24.847,21-3.9468,3.0697z" stroke="#1919ac" stroke-width="1" fill="none"/>
 <path id="path53" d="M16.954,27.139,13.007,30.209z" stroke="#1919ac" stroke-width="1" fill="none"/>
 <path id="path55" d="M9.06,33.279,5.1133,36.349z" stroke="#1919ac" stroke-width="1" fill="none"/>
 <path id="path57" d="m24.847,21-3.5355,3.5355z" stroke="#1919ac" stroke-width="1" fill="none"/>
 <path id="path59" d="m17.776,28.071-3.5355,3.5355z" stroke="#1919ac" stroke-width="1" fill="none"/>
 <path id="path61" d="M10.705,35.142,7.1694,38.678z" stroke="#1919ac" stroke-width="1" fill="none"/>
</svg>
