<?xml version="1.0" encoding="UTF-8" standalone="no"?>
<svg id="svg2" xmlns:rdf="http://www.w3.org/1999/02/22-rdf-syntax-ns#" xmlns="http://www.w3.org/2000/svg" height="41" width="25" version="1.1" xmlns:cc="http://creativecommons.org/ns#" xmlns:dc="http://purl.org/dc/elements/1.1/">
 <metadata id="metadata37">
  <rdf:RDF>
   <cc:Work rdf:about="">
    <dc:format>image/svg+xml</dc:format>
    <dc:type rdf:resource="http://purl.org/dc/dcmitype/StillImage"/>
    <dc:title/>
   </cc:Work>
  </rdf:RDF>
 </metadata>
 <path id="path3" d="M25,21,21.464,17.464z" stroke="#1919ac" stroke-width="1" fill="none"/>
 <path id="path5" d="M17.929,13.929,14.393,10.393z" stroke="#1919ac" stroke-width="1" fill="none"/>
 <path id="path7" d="M10.858,6.8579,7.3223,3.3223z" stroke="#1919ac" stroke-width="1" fill="none"/>
 <path id="path9" d="M25,21,20.528,18.764z" stroke="#1919ac" stroke-width="1" fill="none"/>
 <path id="path11" d="M16.056,16.528,11.584,14.292z" stroke="#1919ac" stroke-width="1" fill="none"/>
 <path id="path13" d="M7.1115,12.056,2.6393,9.8197z" stroke="#1919ac" stroke-width="1" fill="none"/>
 <path id="path15" d="m25,21-5,0z" stroke="#1919ac" stroke-width="1" fill="none"/>
 <path id="path17" d="m15,21-5,0z" stroke="#1919ac" stroke-width="1" fill="none"/>
 <path id="path19" d="M5,21,0,21z" stroke="#1919ac" stroke-width="1" fill="none"/>
 <path id="path21" d="m25,21-4.4721,2.2361z" stroke="#1919ac" stroke-width="1" fill="none"/>
 <path id="path23" d="m16.056,25.472-4.4721,2.2361z" stroke="#1919ac" stroke-width="1" fill="none"/>
 <path id="path25" d="M7.1115,29.944,2.6393,32.18z" stroke="#1919ac" stroke-width="1" fill="none"/>
 <path id="path27" d="m25,21-3.5355,3.5355z" stroke="#1919ac" stroke-width="1" fill="none"/>
 <path id="path29" d="m17.929,28.071-3.5355,3.5355z" stroke="#1919ac" stroke-width="1" fill="none"/>
 <path id="path31" d="M10.858,35.142,7.3223,38.678z" stroke="#1919ac" stroke-width="1" fill="none"/>
</svg>
