<?xml version="1.0" encoding="UTF-8" standalone="no"?>
<svg id="svg2" xmlns:rdf="http://www.w3.org/1999/02/22-rdf-syntax-ns#" xmlns="http://www.w3.org/2000/svg" height="41" width="25" version="1.1" xmlns:cc="http://creativecommons.org/ns#" xmlns:dc="http://purl.org/dc/elements/1.1/">
 <metadata id="metadata67">
  <rdf:RDF>
   <cc:Work rdf:about="">
    <dc:format>image/svg+xml</dc:format>
    <dc:type rdf:resource="http://purl.org/dc/dcmitype/StillImage"/>
    <dc:title/>
   </cc:Work>
  </rdf:RDF>
 </metadata>
 <path id="path3" d="M0,21,3.5355,17.464z" stroke="#000000" stroke-width="1" fill="none"/>
 <path id="path5" d="M7.0711,13.929,10.607,10.393z" stroke="#000000" stroke-width="1" fill="none"/>
 <path id="path7" d="M14.142,6.8579,17.678,3.3223z" stroke="#000000" stroke-width="1" fill="none"/>
 <path id="path9" d="M0,21,3.9468,17.93z" stroke="#000000" stroke-width="1" fill="none"/>
 <path id="path11" d="M7.8935,14.861,11.84,11.791z" stroke="#000000" stroke-width="1" fill="none"/>
 <path id="path13" d="m15.787,8.7212,3.9468-3.0697z" stroke="#000000" stroke-width="1" fill="none"/>
 <path id="path15" d="M0,21,4.3708,18.572z" stroke="#000000" stroke-width="1" fill="none"/>
 <path id="path17" d="M8.7416,16.144,13.112,13.715z" stroke="#000000" stroke-width="1" fill="none"/>
 <path id="path19" d="M17.483,11.287,21.854,8.8589z" stroke="#000000" stroke-width="1" fill="none"/>
 <path id="path21" d="M0,21,4.7434,19.419z" stroke="#000000" stroke-width="1" fill="none"/>
 <path id="path23" d="m9.4868,17.838,4.7434-1.5811z" stroke="#000000" stroke-width="1" fill="none"/>
 <path id="path25" d="m18.974,14.675,4.7434-1.5811z" stroke="#000000" stroke-width="1" fill="none"/>
 <path id="path27" d="M0,21,4.9694,20.448z" stroke="#000000" stroke-width="1" fill="none"/>
 <path id="path29" d="M9.9388,19.896,14.908,19.344z" stroke="#000000" stroke-width="1" fill="none"/>
 <path id="path31" d="m19.878,18.791,4.9694-0.55216z" stroke="#000000" stroke-width="1" fill="none"/>
 <path id="path33" d="m0,21,4.9694,0.55216z" stroke="#000000" stroke-width="1" fill="none"/>
 <path id="path35" d="m9.9388,22.104,4.9694,0.55216z" stroke="#000000" stroke-width="1" fill="none"/>
 <path id="path37" d="m19.878,23.209,4.9694,0.55216z" stroke="#000000" stroke-width="1" fill="none"/>
 <path id="path39" d="m0,21,4.7434,1.5811z" stroke="#000000" stroke-width="1" fill="none"/>
 <path id="path41" d="m9.4868,24.162,4.7434,1.5811z" stroke="#000000" stroke-width="1" fill="none"/>
 <path id="path43" d="m18.974,27.325,4.7434,1.5811z" stroke="#000000" stroke-width="1" fill="none"/>
 <path id="path45" d="m0,21,4.3708,2.4282z" stroke="#000000" stroke-width="1" fill="none"/>
 <path id="path47" d="m8.7416,25.856,4.3708,2.4282z" stroke="#000000" stroke-width="1" fill="none"/>
 <path id="path49" d="m17.483,30.713,4.3708,2.4282z" stroke="#000000" stroke-width="1" fill="none"/>
 <path id="path51" d="m0,21,3.9468,3.0697z" stroke="#000000" stroke-width="1" fill="none"/>
 <path id="path53" d="m7.8935,27.139,3.9468,3.0697z" stroke="#000000" stroke-width="1" fill="none"/>
 <path id="path55" d="m15.787,33.279,3.9468,3.0697z" stroke="#000000" stroke-width="1" fill="none"/>
 <path id="path57" d="m0,21,3.5355,3.5355z" stroke="#000000" stroke-width="1" fill="none"/>
 <path id="path59" d="m7.0711,28.071,3.5355,3.5355z" stroke="#000000" stroke-width="1" fill="none"/>
 <path id="path61" d="M14.142,35.142,17.678,38.678z" stroke="#000000" stroke-width="1" fill="none"/>
</svg>
