<?xml version="1.0" encoding="UTF-8" standalone="no"?>
<svg id="svg2" xmlns:rdf="http://www.w3.org/1999/02/22-rdf-syntax-ns#" xmlns="http://www.w3.org/2000/svg" height="41" width="25" version="1.1" xmlns:cc="http://creativecommons.org/ns#" xmlns:dc="http://purl.org/dc/elements/1.1/">
 <metadata id="metadata49">
  <rdf:RDF>
   <cc:Work rdf:about="">
    <dc:format>image/svg+xml</dc:format>
    <dc:type rdf:resource="http://purl.org/dc/dcmitype/StillImage"/>
    <dc:title/>
   </cc:Work>
  </rdf:RDF>
 </metadata>
 <path id="path3" d="M25,21,21.464,17.464z" stroke="#000000" stroke-width="1" fill="none"/>
 <path id="path5" d="M17.929,13.929,14.393,10.393z" stroke="#000000" stroke-width="1" fill="none"/>
 <path id="path7" d="M10.858,6.8579,7.3223,3.3223z" stroke="#000000" stroke-width="1" fill="none"/>
 <path id="path9" d="M25,21,20.84,18.226z" stroke="#000000" stroke-width="1" fill="none"/>
 <path id="path11" d="M16.679,15.453,12.519,12.679z" stroke="#000000" stroke-width="1" fill="none"/>
 <path id="path13" d="M8.359,9.906,4.1987,7.1325z" stroke="#000000" stroke-width="1" fill="none"/>
 <path id="path15" d="M25,21,20.257,19.419z" stroke="#000000" stroke-width="1" fill="none"/>
 <path id="path17" d="M15.513,17.838,10.77,16.257z" stroke="#000000" stroke-width="1" fill="none"/>
 <path id="path19" d="M6.0263,14.675,1.2829,13.094z" stroke="#000000" stroke-width="1" fill="none"/>
 <path id="path21" d="m25,21-5,0z" stroke="#000000" stroke-width="1" fill="none"/>
 <path id="path23" d="m15,21-5,0z" stroke="#000000" stroke-width="1" fill="none"/>
 <path id="path25" d="M5,21,0,21z" stroke="#000000" stroke-width="1" fill="none"/>
 <path id="path27" d="m25,21-4.7434,1.5811z" stroke="#000000" stroke-width="1" fill="none"/>
 <path id="path29" d="m15.513,24.162-4.7434,1.5811z" stroke="#000000" stroke-width="1" fill="none"/>
 <path id="path31" d="M6.0263,27.325,1.2829,28.906z" stroke="#000000" stroke-width="1" fill="none"/>
 <path id="path33" d="m25,21-4.1603,2.7735z" stroke="#000000" stroke-width="1" fill="none"/>
 <path id="path35" d="m16.679,26.547-4.1603,2.7735z" stroke="#000000" stroke-width="1" fill="none"/>
 <path id="path37" d="M8.359,32.094,4.1987,34.868z" stroke="#000000" stroke-width="1" fill="none"/>
 <path id="path39" d="m25,21-3.5355,3.5355z" stroke="#000000" stroke-width="1" fill="none"/>
 <path id="path41" d="m17.929,28.071-3.5355,3.5355z" stroke="#000000" stroke-width="1" fill="none"/>
 <path id="path43" d="M10.858,35.142,7.3223,38.678z" stroke="#000000" stroke-width="1" fill="none"/>
</svg>
