<?xml version="1.0" encoding="UTF-8" standalone="no"?>
<svg id="svg2" xmlns:rdf="http://www.w3.org/1999/02/22-rdf-syntax-ns#" xmlns="http://www.w3.org/2000/svg" height="41" width="25" version="1.1" xmlns:cc="http://creativecommons.org/ns#" xmlns:dc="http://purl.org/dc/elements/1.1/">
 <metadata id="metadata55">
  <rdf:RDF>
   <cc:Work rdf:about="">
    <dc:format>image/svg+xml</dc:format>
    <dc:type rdf:resource="http://purl.org/dc/dcmitype/StillImage"/>
    <dc:title/>
   </cc:Work>
  </rdf:RDF>
 </metadata>
 <path id="path3" d="M24.749,21,21.213,17.464z" stroke="#000000" stroke-width="1" fill="none"/>
 <path id="path5" d="M17.678,13.929,14.142,10.393z" stroke="#000000" stroke-width="1" fill="none"/>
 <path id="path7" d="M10.607,6.8579,7.0711,3.3223z" stroke="#000000" stroke-width="1" fill="none"/>
 <path id="path9" d="M24.749,21,20.68,18.094z" stroke="#000000" stroke-width="1" fill="none"/>
 <path id="path11" d="M16.611,15.188,12.543,12.281z" stroke="#000000" stroke-width="1" fill="none"/>
 <path id="path13" d="M8.4741,9.3752,4.4054,6.469z" stroke="#000000" stroke-width="1" fill="none"/>
 <path id="path15" d="M24.749,21,20.153,19.03z" stroke="#000000" stroke-width="1" fill="none"/>
 <path id="path17" d="M15.557,17.061,10.962,15.091z" stroke="#000000" stroke-width="1" fill="none"/>
 <path id="path19" d="M6.3658,13.122,1.7701,11.152z" stroke="#000000" stroke-width="1" fill="none"/>
 <path id="path21" d="M24.749,21,19.799,20.293z" stroke="#000000" stroke-width="1" fill="none"/>
 <path id="path23" d="M14.849,19.586,9.8995,18.879z" stroke="#000000" stroke-width="1" fill="none"/>
 <path id="path25" d="M4.9497,18.172,0,17.464z" stroke="#000000" stroke-width="1" fill="none"/>
 <path id="path27" d="m24.749,21-4.9497,0.70711z" stroke="#000000" stroke-width="1" fill="none"/>
 <path id="path29" d="M14.849,22.414,9.8995,23.121z" stroke="#000000" stroke-width="1" fill="none"/>
 <path id="path31" d="M4.9497,23.828,0,24.536z" stroke="#000000" stroke-width="1" fill="none"/>
 <path id="path33" d="m24.749,21-4.5957,1.9696z" stroke="#000000" stroke-width="1" fill="none"/>
 <path id="path35" d="m15.557,24.939-4.5957,1.9696z" stroke="#000000" stroke-width="1" fill="none"/>
 <path id="path37" d="M6.3658,28.878,1.7701,30.848z" stroke="#000000" stroke-width="1" fill="none"/>
 <path id="path39" d="M24.749,21,20.68,23.906z" stroke="#000000" stroke-width="1" fill="none"/>
 <path id="path41" d="m16.611,26.812-4.0687,2.9062z" stroke="#000000" stroke-width="1" fill="none"/>
 <path id="path43" d="M8.4741,32.625,4.4054,35.531z" stroke="#000000" stroke-width="1" fill="none"/>
 <path id="path45" d="m24.749,21-3.5355,3.5355z" stroke="#000000" stroke-width="1" fill="none"/>
 <path id="path47" d="m17.678,28.071-3.5355,3.5355z" stroke="#000000" stroke-width="1" fill="none"/>
 <path id="path49" d="M10.607,35.142,7.0711,38.678z" stroke="#000000" stroke-width="1" fill="none"/>
</svg>
