<?xml version="1.0" encoding="UTF-8" standalone="no"?>
<svg id="svg2" xmlns:rdf="http://www.w3.org/1999/02/22-rdf-syntax-ns#" xmlns="http://www.w3.org/2000/svg" height="41" width="25" version="1.1" xmlns:cc="http://creativecommons.org/ns#" xmlns:dc="http://purl.org/dc/elements/1.1/">
 <metadata id="metadata61">
  <rdf:RDF>
   <cc:Work rdf:about="">
    <dc:format>image/svg+xml</dc:format>
    <dc:type rdf:resource="http://purl.org/dc/dcmitype/StillImage"/>
    <dc:title/>
   </cc:Work>
  </rdf:RDF>
 </metadata>
 <path id="path3" d="M25,21,21.464,17.464z" stroke="#000000" stroke-width="1" fill="none"/>
 <path id="path5" d="M17.929,13.929,14.393,10.393z" stroke="#000000" stroke-width="1" fill="none"/>
 <path id="path7" d="M10.858,6.8579,7.3223,3.3223z" stroke="#000000" stroke-width="1" fill="none"/>
 <path id="path9" d="M25,21,21,18z" stroke="#000000" stroke-width="1" fill="none"/>
 <path id="path11" d="M17,15,13,12z" stroke="#000000" stroke-width="1" fill="none"/>
 <path id="path13" d="M9,9,5,6z" stroke="#000000" stroke-width="1" fill="none"/>
 <path id="path15" d="M25,21,20.528,18.764z" stroke="#000000" stroke-width="1" fill="none"/>
 <path id="path17" d="M16.056,16.528,11.584,14.292z" stroke="#000000" stroke-width="1" fill="none"/>
 <path id="path19" d="M7.1115,12.056,2.6393,9.8197z" stroke="#000000" stroke-width="1" fill="none"/>
 <path id="path21" d="M25,21,20.149,19.787z" stroke="#000000" stroke-width="1" fill="none"/>
 <path id="path23" d="M15.299,18.575,10.448,17.362z" stroke="#000000" stroke-width="1" fill="none"/>
 <path id="path25" d="M5.5972,16.149,0.74644,14.937z" stroke="#000000" stroke-width="1" fill="none"/>
 <path id="path27" d="m25,21-5,0z" stroke="#000000" stroke-width="1" fill="none"/>
 <path id="path29" d="m15,21-5,0z" stroke="#000000" stroke-width="1" fill="none"/>
 <path id="path31" d="M5,21,0,21z" stroke="#000000" stroke-width="1" fill="none"/>
 <path id="path33" d="m25,21-4.8507,1.2127z" stroke="#000000" stroke-width="1" fill="none"/>
 <path id="path35" d="m15.299,23.425-4.8507,1.2127z" stroke="#000000" stroke-width="1" fill="none"/>
 <path id="path37" d="M5.5972,25.851,0.74644,27.063z" stroke="#000000" stroke-width="1" fill="none"/>
 <path id="path39" d="m25,21-4.4721,2.2361z" stroke="#000000" stroke-width="1" fill="none"/>
 <path id="path41" d="m16.056,25.472-4.4721,2.2361z" stroke="#000000" stroke-width="1" fill="none"/>
 <path id="path43" d="M7.1115,29.944,2.6393,32.18z" stroke="#000000" stroke-width="1" fill="none"/>
 <path id="path45" d="m25,21-4,3z" stroke="#000000" stroke-width="1" fill="none"/>
 <path id="path47" d="m17,27-4,3z" stroke="#000000" stroke-width="1" fill="none"/>
 <path id="path49" d="M9,33,5,36z" stroke="#000000" stroke-width="1" fill="none"/>
 <path id="path51" d="m25,21-3.5355,3.5355z" stroke="#000000" stroke-width="1" fill="none"/>
 <path id="path53" d="m17.929,28.071-3.5355,3.5355z" stroke="#000000" stroke-width="1" fill="none"/>
 <path id="path55" d="M10.858,35.142,7.3223,38.678z" stroke="#000000" stroke-width="1" fill="none"/>
</svg>
