<?xml version="1.0" encoding="UTF-8" standalone="no"?>
<svg
   xmlns:dc="http://purl.org/dc/elements/1.1/"
   xmlns:cc="http://creativecommons.org/ns#"
   xmlns:rdf="http://www.w3.org/1999/02/22-rdf-syntax-ns#"
   xmlns:svg="http://www.w3.org/2000/svg"
   xmlns="http://www.w3.org/2000/svg"
   xmlns:xlink="http://www.w3.org/1999/xlink"
   xmlns:sodipodi="http://sodipodi.sourceforge.net/DTD/sodipodi-0.dtd"
   xmlns:inkscape="http://www.inkscape.org/namespaces/inkscape"
   width="535"
   height="474"
   id="svg2"
   version="1.1"
   inkscape:version="0.91 r13725"
   sodipodi:docname="left-floral-design.svg">
  <sodipodi:namedview
     pagecolor="#ffffff"
     bordercolor="#666666"
     borderopacity="1"
     objecttolerance="10"
     gridtolerance="10"
     guidetolerance="10"
     inkscape:pageopacity="0"
     inkscape:pageshadow="2"
     inkscape:window-width="1920"
     inkscape:window-height="1056"
     id="namedview213"
     showgrid="false"
     inkscape:zoom="1.3906433"
     inkscape:cx="91.982489"
     inkscape:cy="240"
     inkscape:window-x="0"
     inkscape:window-y="24"
     inkscape:window-maximized="1"
     inkscape:current-layer="svg2" />
  <title
     id="title4">Floral Design</title>
  <defs
     id="defs6">
    <pattern
       xlink:href="#pattern5504"
       id="pattern5523"
       patternTransform="translate(-84.1377, 510.395)" />
    <pattern
       xlink:href="#pattern5504"
       id="pattern5519"
       patternTransform="matrix(0.880062, 0, 0, 0.880062, -58.8481, 577.678)" />
    <pattern
       xlink:href="#pattern5504"
       id="pattern5517"
       patternTransform="matrix(0.880062, 0, 0, 0.880062, -58.8481, 577.678)" />
    <pattern
       xlink:href="#pattern5504"
       id="pattern5515"
       patternTransform="matrix(0.880062, 0, 0, 0.880062, -58.8481, 577.678)" />
    <pattern
       xlink:href="#pattern5504"
       id="pattern5513"
       patternTransform="matrix(0.880062, 0, 0, 0.880062, -58.8481, 577.678)" />
    <pattern
       xlink:href="#pattern5504"
       id="pattern5511"
       patternTransform="matrix(0.880062, 0, 0, 0.880062, -58.8481, 577.678)" />
    <pattern
       xlink:href="#pattern5490"
       id="pattern5507"
       patternTransform="translate(0.0672191, 0.0671756)" />
    <pattern
       xlink:href="#pattern5478"
       id="pattern5490"
       patternTransform="translate(-79.9494, 517.532)" />
    <pattern
       xlink:href="#pattern5310"
       id="pattern5322"
       patternTransform="translate(-212.763, 474.817)" />
    <pattern
       xlink:href="#pattern5263"
       id="pattern5276"
       patternTransform="matrix(0.893653, 0, 0, 0.815661, -53.4473, 517.427)" />
    <pattern
       xlink:href="#pattern5254"
       id="pattern5263"
       patternTransform="matrix(0.893653, 0, 0, 0.815661, -50.3653, 517.419)" />
    <pattern
       xlink:href="#pattern5244"
       id="pattern5254"
       patternTransform="matrix(0.692326, 0, 0, 0.69244, 3.54248e-07, -1.90234e-05)" />
    <pattern
       xlink:href="#pattern5233"
       id="pattern5247"
       patternTransform="matrix(0.73209, 0, 0, 0.714954, -6.45752e-07, 1.75391e-05)" />
    <pattern
       patternUnits="userSpaceOnUse"
       width="3.551382"
       height="3.635903"
       patternTransform="matrix(0.73209, 0, 0, 0.714954, -50.3262, 517.536)"
       id="pattern5233">
      <path
         id="path5214"
         d="m2.198668,0.29212a0.344911,0.577408 0 1 1 -0.689821,0.905394a0.344911,0.577408 0 1 1 0.689821,-0.905394z"
         fill="#800000" />
      <path
         d="m1.26017,2.078553a0.445328,0.676466 0 1 1 -0.890654,-0.611678a0.445328,0.676466 0 1 1 0.890654,0.611678z"
         id="path5216"
         fill="#800000" />
      <path
         id="path5218"
         d="m2.096067,3.11798a0.120933,0.239701 0 1 1 -0.241866,-1.234458a0.120933,0.239701 0 1 1 0.241866,1.234458z"
         fill="#800000" />
      <path
         id="path5225"
         d="m0.905219,0.599896a0.439712,0.622022 0 1 1 -0.879423,0.044942a0.439712,0.622022 0 1 1 0.879423,-0.044942z"
         fill="#800000" />
      <path
         d="m3.129594,1.485976a0.089309,0.239701 0 1 1 -0.178617,-1.234458a0.089309,0.239701 0 1 1 0.178617,1.234458z"
         id="path5227"
         fill="#800000" />
      <path
         d="m3.518551,2.719102a0.406312,0.635621 0 1 1 -0.812622,0.376953a0.406312,0.635621 0 1 1 0.812622,-0.376953z"
         id="path5229"
         fill="#800000" />
      <path
         d="m0.48147,3.627218a0.113865,0.092421 0 1 1 0.22773,-0.930883a0.113865,0.092421 0 1 1 -0.22773,0.930883z"
         id="path5231"
         fill="#800000" />
    </pattern>
    <pattern
       patternUnits="userSpaceOnUse"
       width="2.599932"
       height="2.599502"
       patternTransform="matrix(0.692326, 0, 0, 0.69244, -50.3262, 517.536)"
       id="pattern5244">
      <rect
         id="rect5242"
         y="0"
         x="0"
         height="2.599502"
         width="2.599932"
         fill="url(#pattern5247)" />
    </pattern>
    <pattern
       patternUnits="userSpaceOnUse"
       width="1.8"
       height="1.8"
       patternTransform="translate(-50.3262, 517.536)"
       id="pattern5251">
      <rect
         id="rect5249"
         y="0"
         x="0"
         height="1.8"
         width="1.8"
         fill="url(#pattern5254)" />
    </pattern>
    <pattern
       patternUnits="userSpaceOnUse"
       width="2.341234"
       height="2.175213"
       patternTransform="translate(-50.4178, 517.402)"
       id="pattern5310">
      <path
         d="m0.647291,0.543049a0.280419,0.330128 0 1 1 -0.560839,-0.306539a0.280419,0.330128 0 1 1 0.560839,0.306539z"
         id="path5266"
         fill="#333333" />
      <path
         id="path5268"
         d="m0.800448,1.025928a0.30273,0.354727 0 1 1 -0.605461,0.288936a0.30273,0.354727 0 1 1 0.605461,-0.288936z"
         fill="#333333" />
      <path
         d="m1.50434,0.314652a0.313016,0.423203 0 1 1 -0.626035,0.436277a0.313016,0.423203 0 1 1 0.626035,-0.436277z"
         id="path5270"
         fill="#333333" />
      <path
         id="path5272"
         d="m0.419252,2.175044a0.00009,0.000119 0 1 1 -0.00018,-0.558595a0.00009,0.000119 0 1 1 0.00018,0.558595z"
         fill="#333333" />
      <path
         id="path5274"
         d="m1.539366,1.830377a0.213405,0.286444 0 1 1 -0.426812,-0.565421a0.213405,0.286444 0 1 1 0.426812,0.565421z"
         fill="#333333" />
      <path
         id="path5278"
         d="m2.218387,0.549386a0.228706,0.324385 0 1 1 -0.457413,-0.357928a0.228706,0.324385 0 1 1 0.457413,0.357928z"
         fill="#333333" />
      <path
         d="m2.301941,1.878316a0.251249,0.360415 0 1 1 -0.502498,-0.230207a0.251249,0.360415 0 1 1 0.502498,0.230207z"
         id="path5280"
         fill="#333333" />
      <path
         d="m2.031566,0.805421a0.014619,0.019814 0 1 1 -0.029238,0.466052a0.014619,0.019814 0 1 1 0.029238,-0.466052z"
         id="path5282"
         fill="#333333" />
    </pattern>
    <pattern
       patternUnits="userSpaceOnUse"
       width="4"
       height="4"
       patternTransform="translate(-50.3935, 512.782)"
       id="pattern5342">
      <g
         transform="matrix(1.71954, 0.0532923, -0.0494765, 1.85216, 117.386, -950.24)"
         id="g5324"
         fill="#800000">
        <path
           id="path5326"
           d="m-52.79372,515.085022c-0.130775,0.182373 -0.362331,0.261536 -0.517208,0.17688c-0.154877,-0.084656 -0.174408,-0.301086 -0.043629,-0.483398c0.130775,-0.182312 0.362331,-0.261536 0.517208,-0.17688c0.154877,0.084656 0.174408,0.301086 0.043629,0.483398z"
           fill="#800000" />
        <path
           d="m-52.640644,515.567932c0.123848,0.195923 0.088707,0.419373 -0.078491,0.499207c-0.167198,0.079773 -0.403122,-0.014343 -0.52697,-0.210266c-0.123848,-0.195923 -0.088711,-0.419434 0.078487,-0.499207c0.167202,-0.079773 0.403126,0.014343 0.526974,0.210266z"
           id="path5328"
           fill="#800000" />
        <path
           id="path5330"
           d="m-51.93766,514.857666c0.162071,0.233704 0.153313,0.520874 -0.019566,0.641357c-0.172882,0.120483 -0.444397,0.028625 -0.606472,-0.205078c-0.162071,-0.233765 -0.153313,-0.520874 0.019566,-0.641357c0.172882,-0.120483 0.444397,-0.028625 0.606472,0.205078z"
           fill="#800000" />
        <path
           d="m-53.021759,516.717346c-0.212505,0.000061 -0.384808,-0.124878 -0.384857,-0.279175c-0.00005,-0.154236 0.172173,-0.279358 0.384678,-0.279419c0.212505,-0.000061 0.384808,0.124939 0.384857,0.279175c0.00005,0.154297 -0.172173,0.279358 -0.384678,0.279419z"
           id="path5332"
           fill="#800000" />
        <path
           d="m-51.901642,516.373352c-0.211575,0.158203 -0.478622,0.159912 -0.596485,0.003784c-0.117867,-0.156189 -0.041901,-0.41095 0.16967,-0.569153c0.211575,-0.158203 0.478622,-0.159912 0.596485,-0.003784c0.117867,0.156189 0.041901,0.41095 -0.16967,0.569153z"
           id="path5334"
           fill="#800000" />
        <path
           d="m-51.222607,515.092407c-0.126747,0.179138 -0.331882,0.244263 -0.458199,0.145386c-0.126312,-0.098816 -0.125961,-0.324158 0.000786,-0.503357c0.126747,-0.179138 0.331879,-0.244263 0.458195,-0.145386c0.126316,0.098816 0.125965,0.324158 -0.000782,0.503357z"
           id="path5336"
           fill="#800000" />
        <path
           id="path5338"
           d="m-51.139053,516.421326c-0.080601,0.199036 -0.258423,0.308838 -0.39719,0.2453c-0.138763,-0.063599 -0.185909,-0.276489 -0.105309,-0.475525c0.080601,-0.199036 0.258423,-0.308899 0.39719,-0.2453c0.138767,0.063538 0.185909,0.276428 0.105309,0.475525z"
           fill="#800000" />
        <path
           id="path5340"
           d="m-51.410435,515.347534c0.173546,0.010925 0.307682,0.124146 0.299606,0.252808c-0.008072,0.128723 -0.1553,0.224182 -0.328846,0.213196c-0.173546,-0.010925 -0.307682,-0.124084 -0.299606,-0.252808c0.008072,-0.128723 0.1553,-0.224182 0.328846,-0.213196z"
           fill="#800000" />
      </g>
    </pattern>
    <pattern
       patternUnits="userSpaceOnUse"
       width="4.531986"
       height="4.508552"
       patternTransform="translate(-50.6334, 507.297)"
       id="pattern5426">
      <g
         id="g5395">
        <path
           d="m0.790369,2.825012c-0.436254,0.000123 -0.789975,-0.234582 -0.790077,-0.52419c-0.000102,-0.289645 0.353453,-0.524513 0.789707,-0.524637c0.436254,-0.000123 0.789975,0.234545 0.790077,0.52419c0.000102,0.289608 -0.353453,0.524513 -0.789707,0.524637z"
           id="path5363"
           fill="#800000" />
        <path
           d="m3.825971,1.48179c-0.45448,0.31616 -0.898404,0.29682 -0.991566,-0.043234c-0.093163,-0.340055 0.199739,-0.871969 0.654219,-1.188129c0.45448,-0.31616 0.898404,-0.29682 0.991566,0.043235c0.093162,0.340055 -0.199739,0.871969 -0.654219,1.188129z"
           id="path5367"
           fill="#800000" />
        <path
           id="path5371"
           d="m2.313381,1.647273c0.326626,0.029191 0.579079,0.331124 0.563883,0.674439c-0.015195,0.343293 -0.292284,0.597922 -0.61891,0.568731c-0.326626,-0.029191 -0.579078,-0.331146 -0.563883,-0.674439c0.015196,-0.343316 0.292284,-0.597922 0.61891,-0.568731z"
           fill="#800000" />
        <path
           id="path5383"
           d="m3.742396,2.778015c-0.436254,0.000123 -0.789975,-0.234582 -0.790077,-0.52419c-0.000102,-0.289645 0.353453,-0.524513 0.789708,-0.524637c0.436254,-0.000123 0.789975,0.234545 0.790077,0.52419c0.000102,0.289608 -0.353453,0.524513 -0.789707,0.524637z"
           fill="#800000" />
        <path
           d="m2.790219,0.78872c0.000124,0.436254 -0.234554,0.789975 -0.52419,0.790077c-0.289636,0.000102 -0.524514,-0.353453 -0.524637,-0.789707c-0.000124,-0.436254 0.234554,-0.789975 0.52419,-0.790077c0.289636,-0.000102 0.524513,0.353453 0.524637,0.789707z"
           id="path5385"
           fill="#800000" />
        <path
           id="path5387"
           d="m2.813717,3.717515c0.000124,0.436254 -0.234554,0.789975 -0.52419,0.790077c-0.289636,0.000102 -0.524514,-0.353453 -0.524637,-0.789708c-0.000123,-0.436254 0.234554,-0.789975 0.52419,-0.790077c0.289636,-0.000102 0.524513,0.353453 0.524637,0.789707z"
           fill="#800000" />
        <path
           id="path5389"
           d="m1.050031,4.281793c-0.45448,0.31616 -0.898404,0.29682 -0.991566,-0.043234c-0.093162,-0.340055 0.199739,-0.871969 0.654219,-1.188129c0.45448,-0.31616 0.898404,-0.29682 0.991567,0.043234c0.093162,0.340055 -0.199739,0.871969 -0.654219,1.188129z"
           fill="#800000" />
        <path
           d="m1.497177,0.719401c0.31616,0.45448 0.29682,0.898404 -0.043234,0.991566c-0.340033,0.093156 -0.871969,-0.199739 -1.188129,-0.654219c-0.31616,-0.45448 -0.296798,-0.89841 0.043234,-0.991566c0.340055,-0.093162 0.871969,0.199739 1.188129,0.654219z"
           id="path5391"
           fill="#800000" />
        <path
           id="path5393"
           d="m4.250168,3.449397c0.31616,0.45448 0.29682,0.898404 -0.043235,0.991566c-0.340033,0.093156 -0.871969,-0.199739 -1.188129,-0.654219c-0.31616,-0.45448 -0.296798,-0.89841 0.043235,-0.991566c0.340055,-0.093162 0.871969,0.199739 1.188129,0.654219z"
           fill="#800000" />
      </g>
    </pattern>
    <pattern
       patternUnits="userSpaceOnUse"
       width="5.599999"
       height="5.602892"
       patternTransform="translate(-82.2386, 518.899)"
       id="pattern5478">
      <path
         d="m1.548456,1.401451a0.670733,0.849903 0 1 1 -1.341471,-0.789173a0.670733,0.849903 0 1 1 1.341471,0.789173z"
         id="path5442"
         fill="#800000" />
      <path
         id="path5444"
         d="m1.988871,2.646259a0.724099,0.913234 0 1 1 -1.448201,0.743857a0.724099,0.913234 0 1 1 1.448201,-0.743857z"
         fill="#800000" />
      <path
         d="m3.597412,0.66357a0.748704,1.089516 0 1 1 -1.497413,1.123181a0.748704,1.089516 0 1 1 1.497413,-1.123181z"
         id="path5446"
         fill="#740000" />
      <path
         id="path5448"
         d="m1.004406,5.602671a0.000216,0.000306 0 1 1 -0.000431,-1.438076a0.000216,0.000306 0 1 1 0.000431,1.438076z"
         fill="#7b0000" />
      <path
         id="path5450"
         d="m3.681447,4.717378a0.510442,0.737439 0 1 1 -1.020887,-1.455648a0.510442,0.737439 0 1 1 1.020887,1.455648z"
         fill="#800000" />
      <path
         id="path5452"
         d="m5.307823,1.417463a0.54704,0.835117 0 1 1 -1.094083,-0.921472a0.54704,0.835117 0 1 1 1.094083,0.921472z"
         fill="#800000" />
      <path
         d="m5.506884,4.839463a0.600963,0.927874 0 1 1 -1.201929,-0.592658a0.600963,0.927874 0 1 1 1.201929,0.592658z"
         id="path5454"
         fill="#800000" />
      <path
         d="m4.861749,2.076726a0.034967,0.051012 0 1 1 -0.069934,1.199835a0.034967,0.051012 0 1 1 0.069934,-1.199835z"
         id="path5456"
         fill="#800000" />
    </pattern>
    <filter
       id="filter5500">
      <feGaussianBlur
         stdDeviation="0.028007"
         id="feGaussianBlur5502" />
    </filter>
    <pattern
       patternUnits="userSpaceOnUse"
       width="5.734434"
       height="5.737327"
       patternTransform="translate(-80.0166, 517.465)"
       id="pattern5504">
      <rect
         id="rect5488"
         y="0.067217"
         x="0.067217"
         height="5.602892"
         width="5.599999"
         filter="url(#filter5500)"
         fill="url(#pattern5507)" />
    </pattern>
  </defs>
  <metadata
     id="metadata2827">image/svg+xml<rdf:RDF>
  <cc:Work
     rdf:about="">
    <dc:format>image/svg+xml</dc:format>
    <dc:type
       rdf:resource="http://purl.org/dc/dcmitype/StillImage" />
    <dc:title>Floral Design</dc:title>
  </cc:Work>
</rdf:RDF>
</metadata>
  <g
     id="g77"
     transform="matrix(-0.56568542,0.56568542,0.56568542,0.56568542,299.82208,-49.849783)">
    <title
       id="title79">Layer 1</title>
    <g
       externalResourcesRequired="false"
       id="layer1">
      <path
         d="m 26.910681,438.38321 5.97011,4.74606 c 38.595093,-48.98794 88.041339,-89.37375 143.387539,-118.44476 55.34841,-29.06723 116.75929,-46.90506 179.23094,-50.89453 0,0 0,0 0,0 21.54129,-1.37818 43.25421,-1.22104 64.99228,-2.26972 21.58477,-1.03338 43.33197,-3.32513 64.17856,-9.5065 20.9273,-6.19969 40.97839,-16.54968 56.47106,-32.0393 15.50177,-15.49645 26.04169,-36.4795 26.74103,-58.41585 0.59491,-19.05811 -6.63427,-38.45102 -20.39728,-51.61146 0,0 0,0 0,0 -6.88678,-6.57793 -15.3081,-11.55197 -24.43096,-14.2541 -9.12378,-2.70132 -18.92844,-3.09941 -28.1955,-0.99524 -9.26709,2.10494 -17.9592,6.72893 -24.76358,13.34195 0,0 0,0 0,0 -6.80441,6.6138 -11.67484,15.20743 -13.69812,24.45998 0,0 0,0 0,0 -2.02176,9.25333 -1.15924,19.12675 2.57162,27.80884 3.73172,8.68287 10.33866,16.11499 18.57764,20.69476 6.63666,3.68747 14.28388,5.51633 21.85324,5.23489 7.5694,-0.28218 15.04203,-2.67312 21.35605,-6.82426 -6.34918,4.09775 -13.82629,6.41623 -21.36209,6.63361 -7.53665,0.21659 -15.11746,-1.66794 -21.66034,-5.37674 -8.12457,-4.60341 -14.59045,-12.01569 -18.19629,-20.60325 -3.6066,-8.58828 -4.36618,-18.31909 -2.30627,-27.38176 2.05997,-9.0642 6.91583,-17.45037 13.62192,-23.86056 0,0 0,0 0,0 6.70599,-6.41166 15.2456,-10.8549 24.29525,-12.83249 9.05048,-1.97758 18.60733,-1.50166 27.45646,1.19814 8.85064,2.69982 16.99963,7.61438 23.63177,14.0535 13.25958,12.85922 20.09228,31.80291 19.37384,50.23408 -0.81372,21.24617 -11.29578,41.54736 -26.45441,56.49624 -15.17767,14.96642 -34.87259,24.87642 -55.42932,30.81063 -20.49408,5.90991 -41.96222,7.96911 -63.40667,8.83242 -21.60154,0.861 -43.32209,0.52161 -65.08527,1.72739 0,0 0,0 0,0 -63.15964,3.50675 -125.4315,20.99832 -181.75154,49.9801 -56.3224,28.97648 -106.852396,69.52478 -146.571648,119.05793 l 0,0 -1.9e-5,0 z"
         id="path2832"
         inkscape:connector-curvature="0"
         style="fill:#000000;fill-rule:evenodd;stroke:#000000" />
      <path
         d="m 467.23209,265.55386 c 7.30822,-2.18692 14.76733,-3.05636 21.96334,-2.74411 5.22507,-0.75399 10.53946,-0.88433 15.78739,-0.36169 12.28592,1.22021 24.23343,6.02182 33.95285,13.65073 9.72149,7.62637 17.23395,18.09521 21.34723,29.75644 0,0 0,0 0,3e-5 4.11627,11.66009 4.84094,24.5343 2.05456,36.59137 -2.67248,11.5754 -8.57971,22.42239 -16.88428,30.92504 -8.30218,8.50412 -19.01733,14.67743 -30.55328,17.55927 -11.53479,2.88434 -23.90973,2.48029 -35.22577,-1.18802 -11.3164,-3.6654 -21.59082,-10.60242 -29.19531,-19.75729 0,0 0,0 0,0 -8.59183,-10.36316 -13.79773,-23.79517 -13.13333,-37.15641 0.32333,-6.68588 2.07309,-13.31918 5.23318,-19.19607 1.42801,-2.65692 3.14603,-5.16303 5.1131,-7.44986 2.32623,-2.8187 5.03116,-5.33072 8.04898,-7.4104 5.50662,-3.79636 12.07495,-6.16062 18.81491,-6.56146 6.73783,-0.40219 13.65833,1.16931 19.53543,4.64499 0,0 0,3e-5 0,3e-5 5.87644,3.47397 10.6937,8.86602 13.34845,15.25576 2.6547,6.3892 3.10666,13.75745 1.03943,20.47266 -1.40945,4.57324 -3.96203,8.81201 -7.38775,12.22348 3.50247,-3.33115 6.17163,-7.52805 7.70395,-12.11883 2.24633,-6.74274 1.98284,-14.25077 -0.59015,-20.87674 -2.57468,-6.62333 -7.39359,-12.31153 -13.42304,-16.07044 0,-3e-5 0,-3e-5 0,-3e-5 -6.02902,-3.75629 -13.1994,-5.58466 -20.29529,-5.32947 -7.0943,0.25665 -14.07016,2.56149 -20.00451,6.4483 -5.93253,3.88688 -10.81134,9.31205 -14.18677,15.54191 -3.37415,6.22906 -5.2562,13.22842 -5.62143,20.29437 -0.71747,14.13077 4.63831,28.21985 13.62012,39.0986 7.92108,9.60694 18.61212,16.89179 30.45758,20.78147 11.84582,3.88757 24.77939,4.36502 36.90194,1.38562 12.12171,-2.98154 23.3678,-9.39725 32.13483,-18.3053 8.76514,-8.90946 15.00788,-20.25785 17.87201,-32.43903 0,0 0,-3e-5 0,-3e-5 2.98163,-12.69012 2.2771,-26.21564 -2.01794,-38.5441 -4.29773,-12.32745 -12.15882,-23.37948 -22.41229,-31.49194 0,0 0,0 0,0 -10.25538,-8.11008 -22.8357,-13.22733 -35.8603,-14.57535 -13.0249,-1.34479 -26.4053,1.08859 -38.13784,6.9465 z"
         id="path2838"
         inkscape:connector-curvature="0"
         style="fill:#000000;fill-rule:evenodd;stroke:#000000" />
      <path
         d="m 91.021332,374.81845 3.813042,4.64453 c 25.935936,-21.47565 45.333126,-50.63199 55.117056,-82.76544 9.77912,-32.13495 9.89244,-67.07425 0.36722,-99.19865 -4.48947,-15.18523 -11.21858,-29.91864 -21.13623,-42.41686 -9.92203,-12.50925 -23.23321,-22.61548 -38.560616,-27.38996 -15.345795,-4.77666 -32.689255,-3.74953 -46.753494,4.13802 -7.027298,3.95436 -13.129019,9.57347 -17.49255,16.36655 -4.363628,6.79596 -6.929779,14.75001 -7.170879,22.82921 -0.27504,9.39518 2.666441,18.83944 8.301809,26.34279 5.640162,7.50189 13.929972,12.94857 23.060801,15.04356 0,0 0,0 1.9e-5,0 9.13348,2.09047 18.990993,0.76727 27.184109,-3.73775 0,0 5.3e-5,0 5.3e-5,0 8.191849,-4.51031 14.581543,-12.16693 17.45079,-21.04437 3.0933,-9.59683 1.96225,-20.43112 -3.01738,-29.15723 4.88176,8.78145 5.867546,19.58461 2.696831,29.05236 -2.938713,8.75976 -9.34697,16.24127 -17.441109,20.57904 0,0 -4.6e-5,0 -4.6e-5,0 -8.094925,4.33587 -17.778358,5.5095 -26.654839,3.3714 -8.876419,-2.13898 -16.883469,-7.54784 -22.257879,-14.86832 -5.37464,-7.32086 -8.10528,-16.49945 -7.737921,-25.52861 0,0 0,0 0,0 0.315451,-7.76991 2.883951,-15.39943 7.142611,-21.87412 4.25889,-6.47567 10.191938,-11.8032 16.970011,-15.52008 13.543419,-7.4357 30.263092,-8.17467 44.920822,-3.45451 14.676167,4.72418 27.382507,14.65964 36.847567,26.83176 9.47011,12.18182 15.82092,26.59326 20.06213,41.48433 3e-5,0 3e-5,0 3e-5,4e-5 8.95543,31.51247 8.4211,65.62283 -1.43702,96.71341 -9.85389,31.0918 -29.02381,59.14337 -54.274937,79.5589 0,0 0,0 0,0 z"
         id="path2844"
         inkscape:connector-curvature="0"
         style="fill:#000000;fill-rule:evenodd;stroke:#000000" />
      <path
         d="m 154.65773,222.05171 c 0.96945,2.87547 1.90305,5.778 2.79964,8.7068 5.08926,-32.88403 5.48822,-66.46844 1.19078,-99.4302 -1.19068,-9.13614 -2.71388,-18.1426 -3.58209,-27.14465 -0.85355,-8.927862 -1.0826,-17.894377 0.32127,-26.592382 2.05336,-12.816681 7.66176,-25.114979 16.18916,-34.904469 0,0 8e-5,0 8e-5,-3.1e-5 8.52212,-9.78891 19.9919,-17.083248 32.54507,-20.405479 12.54801,-3.325439 26.20946,-2.669119 38.29981,2.085651 12.08813,4.748348 22.61645,13.623501 29.13022,24.875957 8.25985,14.235851 9.86413,32.302753 4.27124,47.847805 -5.581,15.551278 -18.31339,28.500748 -33.80587,34.415578 0,6e-5 0,6e-5 0,6e-5 -9.85009,3.75529 -20.86473,4.77285 -31.0241,2.08505 -10.14629,-2.68102 -19.42978,-9.17504 -24.73815,-18.20707 -2.66139,-4.5175 -4.34318,-9.62909 -4.77638,-14.85109 0,0 0,0 0,-5e-5 -0.43379,-5.220752 0.38115,-10.562251 2.45062,-15.37318 2.06816,-4.810104 5.39742,-9.098564 9.60945,-12.208923 4.21006,-3.110451 9.31409,-5.045746 14.5382,-5.402084 6.16855,-0.416977 12.58964,1.438713 17.21544,5.508545 2.31797,2.03363 4.18734,4.593605 5.34761,7.445793 1.16024,2.850975 1.61471,6.002205 1.23284,9.053131 -0.2939,2.358826 -1.08299,4.660538 -2.30079,6.706421 1.2559,-2.029182 2.08754,-4.324837 2.4245,-6.690491 0.43934,-3.074211 0.0362,-6.267792 -1.0885,-9.177055 -1.12963,-2.922821 -2.98548,-5.563118 -5.3136,-7.679657 -4.67317,-4.252403 -11.21024,-6.282997 -17.56905,-5.961784 0,0 -3e-5,0 -3e-5,0 -5.39386,0.272301 -10.69945,2.166321 -15.13054,5.318947 0,0 -3e-5,0 -3e-5,0 -4.42908,3.151688 -7.97868,7.53875 -10.23332,12.536613 -2.24671,4.981636 -3.21269,10.547417 -2.85127,16.056344 0.35974,5.47533 2.01522,10.87772 4.75172,15.70783 5.4048,9.51853 14.94403,16.61083 25.78188,19.64504 10.54176,2.94738 22.1356,2.20172 32.74107,-1.68667 7.97465,-2.91801 15.40184,-7.62315 21.66472,-13.75164 6.26288,-6.12855 11.36407,-13.68286 14.55246,-22.224498 2.97015,-7.986282 4.21478,-16.7388 3.58554,-25.540947 -0.62924,-8.802139 -3.13263,-17.657307 -7.68039,-25.671757 -3.36285,-5.905758 -7.7804,-11.294369 -13.04489,-15.88764 -5.2645,-4.59325 -11.37671,-8.39171 -18.08055,-11.06839 -6.30754,-2.514229 -13.09305,-4.03157 -20.05881,-4.46596 -6.96579,-0.4344 -14.11256,0.21419 -21.08137,2.03842 -6.55497,1.719101 -12.92018,4.457541 -18.83658,8.12479 -5.91632,3.667219 -11.38423,8.263651 -16.0981,13.671228 -4.43787,5.09444 -8.19629,10.878941 -11.12932,17.16143 -2.93307,6.28249 -5.04089,13.063408 -6.15829,20.108818 -1.43123,9.097366 -1.24115,18.461761 -0.30226,27.789826 0.9028,9.04506 2.45832,18.09658 3.6976,27.28677 1.89402,14.04972 2.99521,28.63594 3.14364,43.69045 0.14841,15.05447 -0.65573,30.57805 -2.60028,46.4588 z"
         id="path2850"
         inkscape:connector-curvature="0"
         style="fill:#000000;fill-rule:evenodd;stroke:#000000" />
      <path
         id="path2862"
         d="m 200.53484,309.98398 c 6.94398,-3.40128 14.16209,-5.85712 21.41963,-7.40418 9.9033,-4.08413 20.51515,-6.46899 31.21145,-6.93466 17.98597,-0.78674 36.22074,3.85312 51.65335,13.15103 15.43455,9.29477 28.07343,23.25159 35.79932,39.54361 0,0 0,0 0,0 7.72913,16.29047 10.54742,34.92099 7.97687,52.78192 -1.48868,10.27536 -4.73465,20.35648 -10.33286,28.98178 0,0 0,0 0,0 -5.59195,8.61338 -13.59253,15.80283 -23.06869,19.51615 -9.45132,3.70843 -20.47223,3.87381 -29.59326,-0.39472 0,0 -3e-5,0 -3e-5,0 -4.57099,-2.12729 -8.66614,-5.31314 -11.73923,-9.28308 0,0 -3e-5,0 -3e-5,0 -3.07257,-3.96701 -5.1435,-8.7351 -5.81641,-13.68683 -1.07062,-7.74423 1.40668,-15.974 6.45725,-21.98233 1.37289,-1.638 2.93716,-3.11523 4.64526,-4.41125 4.50061,-3.56024 10.08405,-5.86389 15.8631,-6.46771 5.53299,-0.56635 11.33023,0.37802 16.0921,3.26669 0,0 0,0 0,0 4.74869,2.87726 8.45065,7.79327 9.28143,13.35025 0.72583,4.79974 -0.75738,10.0087 -4.14132,13.61368 -1.69333,1.80517 -3.8339,3.21133 -6.19748,4.02536 -2.36359,0.81399 -4.9476,1.03213 -7.43521,0.58825 -4.68085,-0.83673 -8.90875,-4.12829 -10.87329,-8.56951 -1.95832,-4.44385 -1.58234,-9.87934 1.05719,-14.07575 -2.73001,4.13693 -3.25699,9.60938 -1.35694,14.20105 1.91083,4.58716 6.16376,8.08905 11.0459,9.08154 2.58908,0.52173 5.30051,0.35962 7.81424,-0.44259 2.51291,-0.80271 4.81088,-2.23245 6.65735,-4.11252 3.68994,-3.77057 5.42487,-9.25916 4.759,-14.48212 -0.78653,-6.0282 -4.58673,-11.4165 -9.68011,-14.64761 -5.0842,-3.22174 -11.25888,-4.41727 -17.19995,-3.92874 -8.52726,0.68716 -16.75251,4.79803 -22.3064,11.34692 -5.55011,6.55588 -8.26398,15.45627 -7.13586,24.00574 0,0 6e-5,3e-5 6e-5,3e-5 0.72671,5.44705 2.95758,10.65527 6.30343,15.00259 3.34565,4.3454 7.76752,7.82062 12.72254,10.14511 9.91672,4.6345 21.69119,4.54319 31.84378,0.57676 10.14047,-3.96524 18.64392,-11.50531 24.55365,-20.57865 5.90634,-9.06631 9.35028,-19.55047 10.91226,-30.18399 2.72839,-18.47983 -0.10452,-37.74457 -8.05652,-54.67917 -3e-5,-3e-5 -3e-5,-3e-5 -3e-5,-3e-5 -7.95483,-16.93329 -20.98383,-31.44073 -36.9964,-41.17111 -16.01431,-9.72748 -34.91785,-14.6206 -53.66876,-13.87567 -18.75079,0.7485 -37.23392,7.13043 -52.47038,18.13376 z"
         inkscape:connector-curvature="0"
         style="fill:#000000;fill-rule:evenodd;stroke:#000000" />
      <g
         id="g2911"
         style="fill:url(#pattern5504)">
        <path
           id="path2856"
           d="m 345.40311,171.54596 c 2.0271,-0.85918 4.03616,-1.8596 6.00699,-2.99745 4.7528,-7.15145 7.65872,-15.25678 8.4345,-23.48569 0,0 0,0 0,0 0.95398,-10.14076 -1.3323,-20.41205 -6.39254,-29.24297 0,0 0,0 0,0 -2.1091,-3.68067 -4.68836,-7.11434 -7.65793,-10.20853 2.66534,3.32476 4.88055,6.92213 6.59372,10.68296 1.93609,4.24906 3.21731,8.71356 3.84237,13.22205 1.12653,4.98895 1.44971,10.14961 0.90961,15.24812 -1.01837,9.64082 -5.12665,19.07823 -11.73672,26.78151 0,0 0,0 0,0 z"
           inkscape:connector-curvature="0"
           style="fill:#000000;fill-rule:evenodd;stroke:#000000" />
        <g
           id="g2872"
           style="fill:url(#pattern5504)">
          <path
             d="m 362.29633,149.92833 c 0,0 10.77804,-10.51697 15.50991,-22.36364 3.94321,11.12137 -6.96637,20.55034 -15.50991,22.36364 z"
             id="path2868"
             inkscape:connector-curvature="0"
             style="fill:#000000;stroke:#000000" />
          <path
             id="path2870"
             d="m 361.07294,149.3757 c 0,0 8.41485,-7.56135 16.14526,-22.47074 -12.3768,0.87592 -17.7084,14.54293 -16.14526,22.47074 z"
             inkscape:connector-curvature="0"
             style="fill:#000000;stroke:#000000" />
        </g>
        <g
           id="g2876"
           style="fill:url(#pattern5504)">
          <path
             id="path2878"
             d="m 358.13983,120.34615 c 0,0 6.91342,-11.66192 8.13947,-23.244794 6.27517,9.115494 -1.02695,19.832334 -8.13947,23.244794 z"
             inkscape:connector-curvature="0"
             style="fill:#000000;stroke:#000000" />
          <path
             d="m 356.91809,120.10863 c 0,0 5.56012,-8.52415 8.67532,-23.473773 -10.74179,3.378203 -12.04348,16.714203 -8.67532,23.473773 z"
             id="path2880"
             inkscape:connector-curvature="0"
             style="fill:#000000;stroke:#000000" />
        </g>
        <g
           id="g2882"
           style="fill:url(#pattern5504)">
          <path
             d="m 346.66943,104.84887 c 0,0 -2.71508,-9.81421 -8.27554,-16.812997 8.05191,1.979469 10.06522,11.460785 8.27554,16.812997 z"
             id="path2884"
             inkscape:connector-curvature="0"
             style="fill:#000000;stroke:#000000" />
          <path
             id="path2886"
             d="m 345.92236,105.31303 c 0,0 -1.72723,-7.420651 -8.12573,-17.200718 -3.65057,7.101974 2.80737,15.106508 8.12573,17.200718 z"
             inkscape:connector-curvature="0"
             style="fill:#000000;stroke:#000000" />
        </g>
        <g
           id="g2888"
           style="fill:url(#pattern5504)">
          <path
             d="m 353.7312,125.24821 c 0,0 -13.75509,-4.11045 -23.2832,-11.76953 2.19229,10.61834 15.52817,13.79397 23.2832,11.76953 z"
             id="path2890"
             inkscape:connector-curvature="0"
             style="fill:#000000;stroke:#000000" />
          <path
             id="path2892"
             d="m 354.44961,124.30053 c 0,0 -10.42562,-2.68306 -23.84652,-11.59651 10.38934,-4.35063 21.27896,4.53741 23.84652,11.59651 z"
             inkscape:connector-curvature="0"
             style="fill:#000000;stroke:#000000" />
        </g>
        <g
           id="g2894"
           style="fill:url(#pattern5504)">
          <path
             id="path2896"
             d="m 351.8306,157.0605 c 0,0 -13.41571,-10.51695 -19.30551,-22.36363 -4.90824,11.12137 8.67111,20.55034 19.30551,22.36363 z"
             inkscape:connector-curvature="0"
             style="fill:#000000;stroke:#000000" />
          <path
             d="m 353.35333,156.50787 c 0,0 -10.47418,-7.56135 -20.09631,-22.47076 15.40564,0.87592 22.04199,14.54295 20.09631,22.47076 z"
             id="path2898"
             inkscape:connector-curvature="0"
             style="fill:#000000;stroke:#000000" />
        </g>
      </g>
      <g
         id="g2981"
         style="fill:url(#pattern5504)">
        <path
           d="m 297.50015,277.99185 c 3.73319,0.51608 7.53171,0.87451 11.37928,1.07389 17.4793,-3.5268 34.08038,-10.34134 48.65838,-19.67249 17.61905,-11.27418 32.36533,-26.27815 42.2583,-43.60205 0,0 0,0 0,-3e-5 2.09531,-3.66883 3.98618,-7.43192 5.66382,-11.26961 -1.87912,3.75911 -3.9628,7.42487 -6.23926,10.9789 -6.45486,10.07986 -14.56177,19.17607 -23.84634,27.04257 -5.91889,5.46031 -12.40509,10.42105 -19.33078,14.79498 -17.35358,10.95358 -37.5506,18.27912 -58.5434,20.65384 0,0 0,0 0,0 z"
           id="path2931"
           inkscape:connector-curvature="0"
           style="fill:#000000;fill-rule:evenodd;stroke:#000000" />
        <g
           id="g2939"
           style="fill:url(#pattern5504)">
          <path
             d="m 403.93484,214.98102 c 0,0 13.01304,-0.58155 23.28357,-5.06664 -4.67563,8.54531 -17.08068,8.42234 -23.28357,5.06664 z"
             id="path2941"
             inkscape:connector-curvature="0"
             style="fill:#000000;stroke:#000000" />
          <path
             id="path2943"
             d="m 403.55862,214.02524 c 0,0 9.75025,-0.0739 23.7273,-4.80084 -7.88208,-5.88564 -19.65537,-0.64557 -23.7273,4.80084 z"
             inkscape:connector-curvature="0"
             style="fill:#000000;stroke:#000000" />
        </g>
        <g
           id="g2945"
           style="fill:url(#pattern5504)">
          <path
             id="path2947"
             d="m 406.61295,204.83676 c 0,0 7.68795,-7.24985 11.27996,-15.26376 2.36393,7.35057 -5.38134,13.87607 -11.27996,15.26376 z"
             inkscape:connector-curvature="0"
             style="fill:#000000;stroke:#000000" />
          <path
             d="m 405.79263,204.49269 c 0,0 5.98294,-5.22613 11.71784,-15.34842 -8.49256,0.84023 -12.54938,10.08293 -11.71784,15.34842 z"
             id="path2949"
             inkscape:connector-curvature="0"
             style="fill:#000000;stroke:#000000" />
        </g>
        <g
           id="g2951"
           style="fill:url(#pattern5504)">
          <path
             id="path2953"
             d="m 396.60794,212.53165 c 0,0 -7.04181,-9.20812 -9.32065,-18.83606 -4.259,8.19598 3.00543,16.57675 9.32065,18.83606 z"
             inkscape:connector-curvature="0"
             style="fill:#000000;stroke:#000000" />
          <path
             d="m 397.60355,212.22761 c 0,0 -5.57087,-6.68722 -9.79337,-18.98263 9.3454,1.92026 11.87729,13.01483 9.79337,18.98263 z"
             id="path2955"
             inkscape:connector-curvature="0"
             style="fill:#000000;stroke:#000000" />
        </g>
      </g>
      <g
         id="g2993"
         style="fill:url(#pattern5504)">
        <path
           id="path2995"
           d="m 150.7144,338.13293 c 3.21245,-1.79388 6.53951,-3.50225 9.96687,-5.11764 17.12278,-4.22607 34.5987,-5.80673 51.11728,-4.84448 19.96318,1.16046 38.6216,6.04165 53.68119,14.41296 0,0 0,0 0,6e-5 3.18936,1.7728 6.2261,3.69016 9.09509,5.74167 -3.0246,-1.91907 -6.20245,-3.69418 -9.51633,-5.31689 -9.3974,-4.60288 -19.95189,-7.8816 -31.14612,-9.84516 -7.29232,-1.5646 -14.92526,-2.56085 -22.75215,-2.97647 -19.60965,-1.03726 -40.53303,1.56354 -60.44583,7.94595 0,0 0,0 0,0 z"
           inkscape:connector-curvature="0"
           style="fill:#000000;fill-rule:evenodd;stroke:#000000" />
        <g
           id="g2997"
           style="fill:url(#pattern5504)">
          <path
             id="path2999"
             d="m 269.52524,341.56564 c 0,0 12.03165,-4.58166 22.93768,-5.37051 -7.24271,-4.20764 -18.47498,0.63553 -22.93768,5.37051 z"
             inkscape:connector-curvature="0"
             style="fill:#000000;stroke:#000000" />
          <path
             d="m 269.5181,342.38098 c 0,0 8.88812,-3.68689 23.24795,-5.72726 -5.10296,7.15542 -17.63934,7.99041 -23.24795,5.72726 z"
             id="path3001"
             inkscape:connector-curvature="0"
             style="fill:#000000;stroke:#000000" />
        </g>
        <g
           id="g3003"
           style="fill:url(#pattern5504)">
          <path
             d="m 275.51242,347.66205 c 0,0 9.52701,2.14276 15.59866,6.39282 -0.42581,-6.06805 -9.75125,-7.6803 -15.59866,-6.39282 z"
             id="path3005"
             inkscape:connector-curvature="0"
             style="fill:#000000;stroke:#000000" />
          <path
             id="path3007"
             d="m 274.88733,348.2182 c 0,0 7.2684,1.37558 16.0263,6.28433 -8.01342,2.6666 -14.93795,-2.26803 -16.0263,-6.28433 z"
             inkscape:connector-curvature="0"
             style="fill:#000000;stroke:#000000" />
        </g>
        <g
           id="g3009"
           style="fill:url(#pattern5504)">
          <path
             d="m 263.72357,346.09521 c 0,0 -3.17547,9.16617 -1.87466,16.80082 -6.74173,-4.1221 -3.07419,-12.7927 1.87466,-16.80082 z"
             id="path3011"
             inkscape:connector-curvature="0"
             style="fill:#000000;stroke:#000000" />
          <path
             id="path3013"
             d="m 264.73498,345.92685 c 0,0 -2.72143,6.83203 -2.25302,17.08511 7.82181,-4.93203 6.23734,-13.69351 2.25302,-17.08511 z"
             inkscape:connector-curvature="0"
             style="fill:#000000;stroke:#000000" />
        </g>
      </g>
      <g
         id="g3015"
         style="fill:url(#pattern5504)">
        <path
           id="path3017"
           d="m 167.4279,324.47201 c 3.68816,-0.74108 7.37625,-1.6509 11.04854,-2.72549 14.96576,-9.0231 27.8373,-20.83041 37.84354,-34.3262 12.09491,-16.30786 20.06066,-35.15933 22.59285,-54.58814 0,0 0,0 0,-1e-5 0.53637,-4.11464 0.8453,-8.25043 0.9261,-12.38599 -0.29953,4.12819 -0.82625,8.23619 -1.57637,12.30292 -2.12618,11.53351 -6.17702,22.68932 -11.80474,33.08202 -3.41499,7.0415 -7.55361,13.80212 -12.3303,20.15844 -11.97103,15.92136 -28.00453,29.38446 -46.69962,38.48245 0,0 0,0 0,0 z"
           inkscape:connector-curvature="0"
           style="fill:#000000;fill-rule:evenodd;stroke:#000000" />
        <g
           id="g3019"
           style="fill:url(#pattern5504)">
          <path
             id="path3021"
             d="m 242.46605,230.71901 c 0,0 11.93367,-4.8076 19.79252,-12.36389 -1.05813,9.51661 -12.69667,13.46669 -19.79252,12.36389 z"
             inkscape:connector-curvature="0"
             style="fill:#000000;stroke:#000000" />
          <path
             d="m 241.74426,229.94922 c 0,0 9.08171,-3.26412 20.31018,-12.26096 -9.645,-2.91652 -18.61551,5.83766 -20.31018,12.26096 z"
             id="path3023"
             inkscape:connector-curvature="0"
             style="fill:#000000;stroke:#000000" />
        </g>
        <g
           id="g3025"
           style="fill:url(#pattern5504)">
          <path
             d="m 241.03836,220.3629 c 0,0 4.37476,-9.29337 4.62631,-17.95833 5.05646,6.09349 0.34755,14.72882 -4.62631,17.95833 z"
             id="path3027"
             inkscape:connector-curvature="0"
             style="fill:#000000;stroke:#000000" />
          <path
             id="path3029"
             d="m 240.13866,220.31016 c 0,0 3.56552,-6.84364 5.00251,-18.18089 -7.6096,3.56801 -7.81944,13.53349 -5.00251,18.18089 z"
             inkscape:connector-curvature="0"
             style="fill:#000000;stroke:#000000" />
        </g>
        <g
           id="g3031"
           style="fill:url(#pattern5504)">
          <path
             d="m 234.67108,230.83133 c 0,0 -10.14697,-6.2963 -16.00624,-14.54563 -0.80426,9.05372 9.2302,14.504 16.00624,14.54563 z"
             id="path3033"
             inkscape:connector-curvature="0"
             style="fill:#000000;stroke:#000000" />
          <path
             id="path3035"
             d="m 235.48363,230.22101 c 0,0 -7.79605,-4.42288 -16.50485,-14.5277 9.47604,-1.26814 16.13995,8.26863 16.50485,14.5277 z"
             inkscape:connector-curvature="0"
             style="fill:#000000;stroke:#000000" />
        </g>
      </g>
      <g
         id="g3037"
         style="fill:url(#pattern5504)">
        <path
           d="m 155.52451,140.20558 c 0.81059,-3.39096 1.45451,-6.85249 1.9291,-10.36973 -2.65245,-16.2761 -8.93063,-31.967098 -18.07482,-45.970677 C 128.33086,66.940612 113.04366,52.40171 94.913857,42.160499 c 0,0 0,0 -4.6e-5,0 -3.839493,-2.168938 -7.794937,-4.156769 -11.845673,-5.953911 3.951904,1.976822 7.788902,4.134953 11.491699,6.46241 10.501843,6.59996 19.825673,14.649761 27.736363,23.697701 5.52626,5.797829 10.47248,12.082779 14.75255,18.731628 10.71806,16.659413 17.30911,35.684423 18.47575,55.107253 0,0 0,0 0,0 z"
           id="path3039"
           inkscape:connector-curvature="0"
           style="fill:#000000;fill-rule:evenodd;stroke:#000000" />
        <g
           id="g3041"
           style="fill:url(#pattern5504)">
          <path
             d="m 94.312813,38.308491 c 0,0 0.242844,-11.980042 -3.933243,-21.70557 8.956543,4.864159 7.990219,16.238968 3.933243,21.70557 z"
             id="path3043"
             inkscape:connector-curvature="0"
             style="fill:#000000;stroke:#000000" />
          <path
             id="path3045"
             d="m 93.250717,38.5895 c 0,0 0.574486,-8.951981 -3.615135,-22.094971 -6.914391,6.837601 -2.020111,17.992802 3.615135,22.094971 z"
             inkscape:connector-curvature="0"
             style="fill:#000000;stroke:#000000" />
        </g>
        <g
           id="g3047"
           style="fill:url(#pattern5504)">
          <path
             id="path3049"
             d="m 83.487534,35.169781 c 0,0 -7.348946,-7.54141 -15.80175,-11.37557 8.133087,-1.6756 14.692368,5.869789 15.80175,11.37557 z"
             inkscape:connector-curvature="0"
             style="fill:#000000;stroke:#000000" />
          <path
             d="m 83.059158,35.899391 c 0,0 -5.267929,-5.840912 -15.864212,-11.78301 0.341354,7.849289 10.096016,12.192488 15.864212,11.78301 z"
             id="path3051"
             inkscape:connector-curvature="0"
             style="fill:#000000;stroke:#000000" />
        </g>
        <g
           id="g3053"
           style="fill:url(#pattern5504)">
          <path
             id="path3055"
             d="m 91.163643,44.867191 c 0,0 -10.462372,5.84341 -21.060371,7.288059 8.60553,4.458439 18.185295,-1.644791 21.060371,-7.288059 z"
             inkscape:connector-curvature="0"
             style="fill:#000000;stroke:#000000" />
          <path
             d="m 90.900658,43.933182 c 0,0 -7.628769,4.66293 -21.25116,7.712029 2.710709,-8.446609 14.916794,-10.024971 21.25116,-7.712029 z"
             id="path3057"
             inkscape:connector-curvature="0"
             style="fill:#000000;stroke:#000000" />
        </g>
      </g>
      <g
         id="g3091"
         style="fill:url(#pattern5504)">
        <path
           d="m 519.93048,216.82986 a 1.1825705,1.478193 0 1 1 -2.36414,0.086 1.1825705,1.478193 0 1 1 2.36414,-0.086 z"
           id="path3093"
           inkscape:connector-curvature="0"
           style="fill:#000000;stroke:#000000" />
        <path
           id="path3095"
           d="m 517.92407,220.70795 a 1.1563013,1.6542383 0 1 1 -2.27435,0.59924 1.1563013,1.6542383 0 1 1 2.27435,-0.59924 z"
           inkscape:connector-curvature="0"
           style="fill:#000000;stroke:#000000" />
        <path
           d="m 522.66254,221.12706 a 1.1577663,1.6563349 0 1 1 -2.27936,-0.58325 1.1577663,1.6563349 0 1 1 2.27936,0.58325 z"
           id="path3097"
           inkscape:connector-curvature="0"
           style="fill:#000000;stroke:#000000" />
      </g>
      <g
         id="g3107"
         style="fill:url(#pattern5504)">
        <path
           id="path3109"
           d="m 401.22397,320.20441 c -0.01,0.81659 -0.54761,1.47314 -1.20099,1.4664 -0.65326,-0.007 -1.17477,-0.67426 -1.1648,-1.49085 0.01,-0.81659 0.54773,-1.47314 1.2009,-1.46637 0.65338,0.007 1.1749,0.67423 1.16489,1.49082 z"
           inkscape:connector-curvature="0"
           style="fill:#000000;stroke:#000000" />
        <path
           d="m 399.00632,323.98383 c 0.22995,0.91046 -0.0995,1.75872 -0.73587,1.89471 -0.63645,0.13593 -1.33869,-0.49188 -1.56864,-1.40234 -0.23001,-0.91037 0.0994,-1.75873 0.73581,-1.89466 0.63645,-0.13595 1.33875,0.49185 1.5687,1.40229 z"
           id="path3111"
           inkscape:connector-curvature="0"
           style="fill:#000000;stroke:#000000" />
        <path
           id="path3113"
           d="m 403.71551,324.62344 c -0.32171,0.88663 -1.0849,1.45115 -1.70468,1.26096 -0.61966,-0.19019 -0.86129,-1.06314 -0.53952,-1.94974 0.32169,-0.88662 1.08487,-1.45117 1.70459,-1.26095 0.61975,0.19021 0.86136,1.06317 0.53962,1.94973 z"
           inkscape:connector-curvature="0"
           style="fill:#000000;stroke:#000000" />
      </g>
      <g
         id="g3131"
         style="fill:url(#pattern5504)">
        <path
           d="m 87.854942,421.87491 c 0.0727,0.81393 -0.396141,1.5137 -1.047295,1.56283 -0.651176,0.0492 -1.237938,-0.57067 -1.310669,-1.38455 -0.07278,-0.81393 0.396149,-1.51364 1.047264,-1.56283 0.651154,-0.0492 1.237968,0.57067 1.310699,1.38455 z"
           id="path3133"
           inkscape:connector-curvature="0"
           style="fill:#000000;stroke:#000000" />
        <path
           id="path3135"
           d="m 86.029503,425.82785 c 0.321136,0.88684 0.07896,1.75967 -0.540916,1.94943 -0.619873,0.18988 -1.382668,-0.37506 -1.703804,-1.26187 -0.321129,-0.88684 -0.07895,-1.75958 0.540901,-1.94943 0.619888,-0.18988 1.382683,0.37509 1.703819,1.26187 z"
           inkscape:connector-curvature="0"
           style="fill:#000000;stroke:#000000" />
        <path
           d="m 90.783012,426.06155 c -0.230606,0.91031 -0.933319,1.53772 -1.569626,1.4014 -0.636284,-0.13635 -0.965164,-0.98477 -0.734627,-1.89508 0.230598,-0.91028 0.933327,-1.53775 1.569618,-1.40143 0.636322,0.13636 0.96521,0.98484 0.734634,1.89511 z"
           id="path3137"
           inkscape:connector-curvature="0"
           style="fill:#000000;stroke:#000000" />
      </g>
      <g
         id="g3139"
         style="fill:url(#pattern5504)">
        <path
           d="m 200.8942,448.31967 c -2.23174,-0.0294 -4.5093,-0.19464 -6.81257,-0.49966 -7.49764,-4.76462 -13.72767,-11.08988 -18.06506,-18.32257 0,0 0,0 0,0 -5.34329,-8.91382 -7.78213,-19.15537 -7.05025,-29.11487 0,0 0,0 0,0 0.30501,-4.15103 1.14876,-8.25168 2.49889,-12.18753 -0.97038,4.03323 -1.40913,8.14767 -1.31696,12.22433 0.1037,4.60608 0.90107,9.16486 2.31754,13.51914 1.16994,4.98053 3.14992,9.81836 5.89166,14.27749 5.18163,8.4328 13.09804,15.52735 22.53675,20.10367 0,0 0,0 0,0 z"
           id="path3141"
           inkscape:connector-curvature="0"
           style="fill:#000000;fill-rule:evenodd;stroke:#000000" />
        <g
           id="g3143"
           style="fill:url(#pattern5504)">
          <path
             id="path3145"
             d="m 175.92071,434.85931 c 0,0 -14.48918,-5.5939 -24.03788,-14.6582 1.29907,11.6366 15.42877,16.18695 24.03788,14.6582 z"
             inkscape:connector-curvature="0"
             style="fill:#000000;stroke:#000000" />
          <path
             d="m 176.79535,433.89789 c 0,0 -11.02591,-3.7735 -24.66594,-14.51911 11.69974,-3.81515 22.59933,6.6894 24.66594,14.51911 z"
             id="path3147"
             inkscape:connector-curvature="0"
             style="fill:#000000;stroke:#000000" />
        </g>
        <g
           id="g3149"
           style="fill:url(#pattern5504)">
          <path
             d="m 166.67693,406.26837 c 0,0 -11.46138,-8.08182 -17.68918,-18.21243 -1.71697,10.67273 9.68301,17.74567 17.68918,18.21243 z"
             id="path3151"
             inkscape:connector-curvature="0"
             style="fill:#000000;stroke:#000000" />
          <path
             id="path3153"
             d="m 167.68898,405.59555 c 0,0 -8.84091,-5.71817 -18.27997,-18.2218 11.30852,-0.91809 18.37843,10.78686 18.27997,18.2218 z"
             inkscape:connector-curvature="0"
             style="fill:#000000;stroke:#000000" />
        </g>
        <g
           id="g3155"
           style="fill:url(#pattern5504)">
          <path
             id="path3157"
             d="m 170.32899,387.82455 c 0,0 -1.84539,-9.98367 0.15154,-18.45495 -6.48744,4.81234 -4.14728,14.23001 -0.15154,18.45495 z"
             inkscape:connector-curvature="0"
             style="fill:#000000;stroke:#000000" />
          <path
             d="m 171.21654,387.97021 c 0,0 -1.69303,-7.42724 -0.15636,-18.75344 6.46831,5.13037 4.09451,14.85574 0.15636,18.75344 z"
             id="path3159"
             inkscape:connector-curvature="0"
             style="fill:#000000;stroke:#000000" />
        </g>
        <g
           id="g3161"
           style="fill:url(#pattern5504)">
          <path
             id="path3163"
             d="m 172.86824,409.10507 c 0,0 10.76114,-8.88714 16.09363,-19.44168 2.67784,10.52374 -8.11223,18.40006 -16.09363,19.44168 z"
             inkscape:connector-curvature="0"
             style="fill:#000000;stroke:#000000" />
          <path
             d="m 171.79367,408.50674 c 0,0 8.34705,-6.34069 16.68489,-19.49365 -11.41505,-0.10226 -17.45036,12.08344 -16.68489,19.49365 z"
             id="path3165"
             inkscape:connector-curvature="0"
             style="fill:#000000;stroke:#000000" />
        </g>
        <g
           id="g3167"
           style="fill:url(#pattern5504)">
          <path
             d="m 188.63206,437.47565 c 0,0 7.62607,-14.6167 7.78657,-27.64222 9.39012,8.33545 1.13476,22.01874 -7.78657,27.64222 z"
             id="path3169"
             inkscape:connector-curvature="0"
             style="fill:#000000;stroke:#000000" />
          <path
             id="path3171"
             d="m 186.99641,437.53839 c 0,0 6.2405,-10.81805 8.46224,-28.03506 -13.69593,6.54605 -13.73622,21.51397 -8.46224,28.03506 z"
             inkscape:connector-curvature="0"
             style="fill:#000000;stroke:#000000" />
        </g>
      </g>
      <g
         id="g3173"
         style="fill:url(#pattern5504)">
        <path
           d="m 399.22504,439.3454 c 1.74694,0.91021 3.59802,1.73651 5.53976,2.46744 8.22693,-0.4813 16.25891,-2.67606 23.28061,-6.34986 0,0 0,0 0,0 8.65213,-4.52865 15.72113,-11.27807 20.18692,-19.13824 0,0 0,0 0,0 1.8613,-3.27613 3.27902,-6.73902 4.22046,-10.28858 -1.28534,3.46473 -3.02432,6.76889 -5.15631,9.8226 -2.40854,3.45047 -5.33136,6.57523 -8.6315,9.2862 -3.42523,3.28891 -7.40702,6.13119 -11.78855,8.36795 -8.28354,4.23138 -18.01309,6.30499 -27.65139,5.83249 0,0 0,0 0,0 z"
           id="path3175"
           inkscape:connector-curvature="0"
           style="fill:#000000;fill-rule:evenodd;stroke:#000000" />
        <g
           id="g3177"
           style="fill:url(#pattern5504)">
          <path
             id="path3179"
             d="m 425.40982,439.57007 c 0,0 14.07218,1.81094 26.06403,-1.07474 -6.88959,8.28378 -20.15525,5.83148 -26.06403,1.07474 z"
             inkscape:connector-curvature="0"
             style="fill:#000000;stroke:#000000" />
          <path
             d="m 425.21698,438.47537 c 0,0 10.46426,1.74469 26.48117,-0.70688 -7.15173,-7.78229 -20.92001,-4.36853 -26.48117,0.70688 z"
             id="path3181"
             inkscape:connector-curvature="0"
             style="fill:#000000;stroke:#000000" />
        </g>
        <g
           id="g3183"
           style="fill:url(#pattern5504)">
          <path
             d="m 447.03424,421.74564 c 0,0 12.97977,-1.34122 22.93332,-6.42331 -4.06171,8.8128 -16.48389,9.41449 -22.93332,6.42331 z"
             id="path3185"
             inkscape:connector-curvature="0"
             style="fill:#000000;stroke:#000000" />
          <path
             id="path3187"
             d="m 446.58893,420.81253 c 0,0 9.75143,-0.6434 23.39648,-6.18368 -8.31238,-5.42133 -19.71512,0.50296 -23.39648,6.18368 z"
             inkscape:connector-curvature="0"
             style="fill:#000000;stroke:#000000" />
        </g>
        <g
           id="g3189"
           style="fill:url(#pattern5504)">
          <path
             id="path3191"
             d="m 453.52194,406.22986 c 0,0 6.47809,-6.8017 9.20984,-14.06168 2.6026,6.36087 -3.97345,12.52649 -9.20984,14.06168 z"
             inkscape:connector-curvature="0"
             style="fill:#000000;stroke:#000000" />
          <path
             d="m 452.75946,405.96954 c 0,0 5.06793,-4.92636 9.59985,-14.15948 -7.61309,1.18887 -10.68609,9.55755 -9.59985,14.15948 z"
             id="path3193"
             inkscape:connector-curvature="0"
             style="fill:#000000;stroke:#000000" />
        </g>
        <g
           id="g3195"
           style="fill:url(#pattern5504)">
          <path
             id="path3197"
             d="m 440.79559,421.31055 c 0,0 -3.85986,-11.23737 -2.66379,-21.47123 -7.39724,6.86359 -3.00412,17.34623 2.66379,21.47123 z"
             inkscape:connector-curvature="0"
             style="fill:#000000;stroke:#000000" />
          <path
             d="m 441.93191,421.30563 c 0,0 -3.27325,-8.29712 -3.09634,-21.75759 8.91074,4.69195 7.43564,16.45669 3.09634,21.75759 z"
             id="path3199"
             inkscape:connector-curvature="0"
             style="fill:#000000;stroke:#000000" />
        </g>
        <g
           id="g3201"
           style="fill:url(#pattern5504)">
          <path
             d="m 414.22232,436.24344 c 0,0 1.46909,-14.27341 7.92792,-24.22049 -11.50043,2.39914 -12.00937,16.22748 -7.92792,24.22049 z"
             id="path3203"
             inkscape:connector-curvature="0"
             style="fill:#000000;stroke:#000000" />
          <path
             id="path3205"
             d="m 415.46005,436.97443 c 0,0 0.62448,-10.81305 7.60202,-24.80079 7.3208,10.68781 -0.2131,22.05808 -7.60202,24.80079 z"
             inkscape:connector-curvature="0"
             style="fill:#000000;stroke:#000000" />
        </g>
      </g>
      <g
         id="g3228"
         style="fill:url(#pattern5504)">
        <path
           d="m 576.56311,188.46559 c 2.75885,-0.32039 5.5434,-0.83182 8.3241,-1.53453 9.89697,-6.79605 17.55365,-16.17709 21.81811,-26.75613 5.19568,-12.8994 5.30243,-27.46146 0.46625,-40.47395 -1.47491,-3.96863 -3.39276,-7.79491 -5.70685,-11.39709 2.05182,3.73312 3.67603,7.63871 4.84418,11.62805 2.07519,7.08423 2.65857,14.44033 1.83764,21.56376 -0.30328,6.05563 -1.61822,12.05601 -3.94964,17.69278 -5.08319,12.30629 -15.01422,22.88318 -27.63379,29.27711 0,0 0,0 0,0 z"
           id="path3230"
           inkscape:connector-curvature="0"
           style="fill:#000000;fill-rule:evenodd;stroke:#000000" />
        <g
           id="g3232"
           style="fill:url(#pattern5504)">
          <path
             id="path3234"
             d="m 610.17035,154.79115 c 0,0 12.41388,-8.52479 19.09668,-19.39091 1.98877,11.63093 -10.36896,19.06125 -19.09668,19.39091 z"
             inkscape:connector-curvature="0"
             style="fill:#000000;stroke:#000000" />
          <path
             d="m 609.05926,154.03799 c 0,0 9.58112,-6.01547 19.74085,-19.38812 -12.34479,-1.24768 -19.92908,11.30988 -19.74085,19.38812 z"
             id="path3236"
             inkscape:connector-curvature="0"
             style="fill:#000000;stroke:#000000" />
        </g>
        <g
           id="g3238"
           style="fill:url(#pattern5504)">
          <path
             d="m 611.11975,124.93352 c 0,0 8.80109,-10.31205 11.98444,-21.51615 4.62866,10.05214 -4.39411,19.36666 -11.98444,21.51615 z"
             id="path3240"
             inkscape:connector-curvature="0"
             style="fill:#000000;stroke:#000000" />
          <path
             id="path3242"
             d="m 609.95642,124.49112 c 0,0 6.93243,-7.45102 12.55151,-21.65038 -11.16052,1.49678 -14.71746,14.41544 -12.55151,21.65038 z"
             inkscape:connector-curvature="0"
             style="fill:#000000;stroke:#000000" />
        </g>
        <g
           id="g3244"
           style="fill:url(#pattern5504)">
          <path
             id="path3246"
             d="m 602.46027,107.70704 c 0,0 -1.00147,-10.133447 -5.28693,-17.978028 7.59638,3.323669 7.96314,13.009458 5.28693,17.978028 z"
             inkscape:connector-curvature="0"
             style="fill:#000000;stroke:#000000" />
          <path
             d="m 601.64508,108.03699 c 0,0 -0.4364,-7.60645 -5.07336,-18.334491 -4.80823,6.375359 0.19,15.363991 5.07336,18.334491 z"
             id="path3248"
             inkscape:connector-curvature="0"
             style="fill:#000000;stroke:#000000" />
        </g>
        <g
           id="g3250"
           style="fill:url(#pattern5504)">
          <path
             id="path3252"
             d="m 605.9397,129.01192 c 0,0 -12.8526,-6.39607 -20.93488,-15.56789 0.34924,10.83669 12.94824,16.24008 20.93488,15.56789 z"
             inkscape:connector-curvature="0"
             style="fill:#000000;stroke:#000000" />
          <path
             d="m 606.80926,128.20062 c 0,0 -9.81543,-4.42177 -21.51953,-15.49346 10.97913,-2.51507 20.19342,8.0999 21.51953,15.49346 z"
             id="path3254"
             inkscape:connector-curvature="0"
             style="fill:#000000;stroke:#000000" />
        </g>
        <g
           id="g3256"
           style="fill:url(#pattern5504)">
          <path
             d="m 598.64154,160.03401 c 0,0 -11.42554,-12.65085 -15.2088,-25.32843 -6.73285,10.12142 5.03949,21.72809 15.2088,25.32843 z"
             id="path3258"
             inkscape:connector-curvature="0"
             style="fill:#000000;stroke:#000000" />
          <path
             id="path3260"
             d="m 600.23627,159.74915 c 0,0 -9.03119,-9.23684 -15.96973,-25.56881 15.03058,3.49036 19.23895,18.08896 15.96973,25.56881 z"
             inkscape:connector-curvature="0"
             style="fill:#000000;stroke:#000000" />
        </g>
      </g>
      <path
         id="path5290"
         d="m -112.38033,78.698112 a 0.37573256,0.54011555 0 1 1 -3.3e-4,-1.080231 0.37573256,0.54011555 0 1 1 3.3e-4,1.080231 z"
         inkscape:connector-curvature="0"
         style="fill:#000000;stroke:#000000" />
      <path
         d="m -109.51187,76.049767 a 0.30686129,0.45226633 0 1 1 -0.052,0.901276 0.30686129,0.45226633 0 1 1 0.052,-0.901276 z"
         id="path5298"
         inkscape:connector-curvature="0"
         style="fill:#000000;stroke:#000000" />
    </g>
  </g>
</svg>
